<svg xmlns="http://www.w3.org/2000/svg" viewBox="-128 -128 256 256" preserveAspectRatio="xMinYMin meet">
	<g id="smokes">
		<path d="M 80 0 C 101.219 21.213, 86.569 56.569, 56.569 56.569 C 56.569 86.569, 21.213 101.213, 0 80 C -21.213 101.213, -56.569 86.569, -56.569 56.569 C -86.569 56.569, -101.213 21.213, -80 0 C -101.213 -21.213, -86.569 -56.569, -56.569 -56.569 C -56.569 -86.569, -21.213 -101.213, 0 -80 C 21.213 -101.213, 56.569 -86.569, 56.569 -56.569 C 86.569 -56.569, 101.219 -21.213, 80 0 Z" transform="scale(1.399999976158142)" id="svg_1" />
	</g>
	<g id="flashes">
		<path d="M 40 0 L 124.724 51.662 L 28.284 28.284 L 51.662 124.724 L 0 40 L -51.662 124.724 L -28.284 28.284 L -124.724 52.662 L -40 0 L -124.724 -52.662 L -28.284 -28.284 L -52.662 -124.724 L 0 -40 L 52.662 -124.724 L 28.284 -28.284 L 124.724 -52.662 Z" id="svg_2" />
	</g>
	<g id="fires">
		<path d="M-29 -478c50 134 24 207-32 265-61 64-156 112-223 206-89 125-104 400 217 472-135-71-164-277-18-406-38 125 32 205 119 176 85-29 141 32 139 102-1 48-20 89-69 112 209-37 293-210 293-342 0-174-155-198-77-344-93 8-125 69-116 169 6 66-63 111-114 81-41-25-40-73-4-109 77-76 107-251-115-382z" transform="scale(0.30000001192092896,0.2800000011920929)" id="svg_3" />
	</g>
	<g id="wbangs">
		<path d="M-69.62774084899488,-102.2828415087947 L71.9887654145933,-102.2828415087947 L71.9887654145933,-20.552086639399533 L111.34749580720404,-20.552086639399533 L111.34749580720404,-47.795671595864135 L148.3209314890177,6.691491003354884 L111.34749580720404,61.17868285742816 L111.34749580720404,33.93508327353308 L71.9887654145933,33.93508327353308 L71.9887654145933,115.6658381429312 L-69.62774084899488,115.6658381429312 L-69.62774084899488,-102.2828415087947 z" id="svg_4" />
	</g>
</svg>