<svg xmlns="http://www.w3.org/2000/svg">
	<g>
		<style>
			text {
				font-family: 'Exo 2', sans-serif;
				font-weight: 700;
				cursor: default;
				opacity: 0.9;
				fill: #EEE;
				-webkit-touch-callout: none;
				  -webkit-user-select: none;
				   -khtml-user-select: none;
					 -moz-user-select: none;
					  -ms-user-select: none;
						  user-select: none;
			}
			text.site {
				fill: #FD4;
			}
			text.dark {
				fill: #111;
			}
		</style>

		 <text class="site" x="2750" y="1260" font-size="300">A</text>
		<text class="site" x="3650" y="1787" font-size="300">B</text>

		<text x="3350" y="5100" font-size="300">T</text>
		<text x="2434" y="1167" font-size="300">CT</text>
    
		<text x="3770" y="2790" font-size="100">PIPE</text>
		<text y="-4280" x="2000" font-size="120" transform="rotate(90 0 0)">MONSTER</text>
		<text x="4180" y="2780" font-size="190" transform="rotate(50 4180 2780)">TRACKS</text>
		<text x="4500" y="3210" font-size="190" transform="rotate(57 4180 2780)">ALLEY</text>
		<text y="3491 " x="-2870" font-size="100" transform="rotate(-90 0 0)">WATER</text>
		<text y="3150" x="-2940" font-size="100" transform="rotate(-90 0 0)">SQUEAKY</text>
		<text y="3070" x="-3650" font-size="100" transform="rotate(-90 0 0)">TUNNELS</text>
		<text y="1880" x="-3460" font-size="200" transform="rotate(-90 0 0)">PARTY</text>
		<text x="1810" y="4220" font-size="150">PLAYGROUND</text>
		<text x="1920" y="3980" font-size="150">FOUNTAIN</text>
		<text y="1200" x="-3400" font-size="320" transform="rotate(-90 0 0)">LONG A</text>
		<text y="2675" x="-2850" font-size="240" transform="rotate(-90 0 0)">SHORT A</text>
		<text x="2050" y="1470" font-size="140">A MAIN</text>
		<text y="2390" x="-2720" font-size="140" transform="rotate(-90 0 0)">RESTROOMS</text>
		<text x="2120" y="430" font-size="160" transform="rotate(27.77 2140 400)">BANK</text>
		<text x="2225" y="755" font-size="100" transform="rotate(30 2140 400)">VAN</text>
		<text x="2390" y="3120" font-size="100">CONNECTOR</text>
		<text y="2986" x="-2405" font-size="150" transform="rotate(-90 0 0)">GRAFFITI</text>
		<text x="3040" y="1480" font-size="100" transform="rotate(-45 3040 1480)">HEAVEN</text>
		<text x="3390" y="2400" font-size="60">CONSTRUCTION</text>
		<text x="2681" y="540" font-size="110">BACK A</text>
		<text x="3834" y="3958" font-size="70">T STAIRS</text>
		<text x="3760" y="1370" font-size="70">BARRELS</text>
		<text x="3240" y="1620" font-size="200">PIT</text>
		<text x="3410" y="2060" font-size="110">BRIDGE</text>
		<text x="3840" y="2360" font-size="60">SAND</text>
		<text x="3840" y="2430" font-size="60">BAGS</text>
		<text x="3890" y="1730" font-size="90">PILLAR</text>
	</g>
</svg>